<svg width="64" height="64" viewBox="0 0 64 64" fill="none" xmlns="http://www.w3.org/2000/svg">
  <rect x="12" y="8" width="40" height="48" rx="4" fill="#E0E7FF" />
  <path d="M32 16C27.5817 16 24 19.5817 24 24C24 28.4183 27.5817 32 32 32C36.4183 32 40 28.4183 40 24C40 19.5817 36.4183 16 32 16Z" fill="#6D28D9"/>
  <path d="M22 38C22 34.6863 24.6863 32 28 32H36C39.3137 32 42 34.6863 42 38V48H22V38Z" fill="#6D28D9"/>
  <path d="M14 12C14 10.8954 14.8954 10 16 10H48C49.1046 10 50 10.8954 50 12V14H14V12Z" fill="#6D28D9"/>
  <circle cx="17" cy="12" r="1" fill="#E0E7FF" />
  <circle cx="20" cy="12" r="1" fill="#E0E7FF" />
  <circle cx="23" cy="12" r="1" fill="#E0E7FF" />
</svg>
