<svg width="64" height="64" viewBox="0 0 64 64" fill="none" xmlns="http://www.w3.org/2000/svg">
  <circle cx="32" cy="32" r="24" fill="#E0E7FF" />
  <path d="M32 20C29.8 20 28 21.8 28 24C28 26.2 29.8 28 32 28C34.2 28 36 26.2 36 24C36 21.8 34.2 20 32 20Z" fill="#6D28D9"/>
  <path d="M32 30C27.6 30 24 33.6 24 38V42H40V38C40 33.6 36.4 30 32 30Z" fill="#6D28D9"/>
  <path d="M44 28L48 32L44 36" stroke="#6D28D9" stroke-width="2" stroke-linecap="round" stroke-linejoin="round"/>
  <path d="M20 28L16 32L20 36" stroke="#6D28D9" stroke-width="2" stroke-linecap="round" stroke-linejoin="round"/>
  <path d="M42 46H22" stroke="#6D28D9" stroke-width="2" stroke-linecap="round"/>
  <circle cx="42" cy="46" r="2" fill="#6D28D9" />
  <circle cx="22" cy="46" r="2" fill="#6D28D9" />
</svg>
