<svg width="120" height="40" viewBox="0 0 120 40" fill="none" xmlns="http://www.w3.org/2000/svg">
  <path d="M14 8C9.58172 8 6 11.5817 6 16V24C6 28.4183 9.58172 32 14 32H26C30.4183 32 34 28.4183 34 24V16C34 11.5817 30.4183 8 26 8H14Z" fill="#8B5CF6"/>
  <path d="M20 16C18.3431 16 17 17.3431 17 19C17 20.6569 18.3431 22 20 22C21.6569 22 23 20.6569 23 19C23 17.3431 21.6569 16 20 16Z" fill="white"/>
  <path d="M14 25C14 22.2386 16.2386 20 19 20H21C23.7614 20 26 22.2386 26 25V26H14V25Z" fill="white"/>
  <path d="M45.392 27V13.8H52.784V16.392H48.4V19.08H52.28V21.672H48.4V27H45.392ZM54.0092 27V16.2H56.8812V27H54.0092ZM55.4452 14.88C54.9652 14.88 54.5652 14.728 54.2452 14.424C53.9252 14.104 53.7652 13.712 53.7652 13.248C53.7652 12.784 53.9252 12.4 54.2452 12.096C54.5652 11.776 54.9652 11.616 55.4452 11.616C55.9252 11.616 56.3252 11.768 56.6452 12.072C56.9812 12.376 57.1492 12.76 57.1492 13.224C57.1492 13.72 56.9812 14.128 56.6452 14.448C56.3252 14.736 55.9252 14.88 55.4452 14.88ZM63.3259 27.168C62.4619 27.168 61.6779 26.976 60.9739 26.592C60.2859 26.208 59.7419 25.672 59.3419 24.984C58.9419 24.296 58.7419 23.496 58.7419 22.584C58.7419 21.672 58.9419 20.872 59.3419 20.184C59.7419 19.496 60.2859 18.96 60.9739 18.576C61.6779 18.192 62.4619 18 63.3259 18C64.1899 18 64.9659 18.192 65.6539 18.576C66.3579 18.96 66.9019 19.496 67.2859 20.184C67.6859 20.872 67.8859 21.672 67.8859 22.584C67.8859 23.496 67.6859 24.296 67.2859 24.984C66.9019 25.672 66.3579 26.208 65.6539 26.592C64.9659 26.976 64.1899 27.168 63.3259 27.168ZM63.3259 24.84C63.8219 24.84 64.2379 24.656 64.5739 24.288C64.9259 23.92 65.1019 23.352 65.1019 22.584C65.1019 21.816 64.9259 21.248 64.5739 20.88C64.2379 20.512 63.8219 20.328 63.3259 20.328C62.8299 20.328 62.4059 20.512 62.0539 20.88C61.7179 21.248 61.5499 21.816 61.5499 22.584C61.5499 23.352 61.7179 23.92 62.0539 24.288C62.4059 24.656 62.8299 24.84 63.3259 24.84ZM74.6528 27.168C73.7888 27.168 73.0048 26.976 72.3008 26.592C71.6128 26.208 71.0688 25.672 70.6688 24.984C70.2688 24.296 70.0688 23.496 70.0688 22.584C70.0688 21.672 70.2688 20.872 70.6688 20.184C71.0688 19.496 71.6128 18.96 72.3008 18.576C73.0048 18.192 73.7888 18 74.6528 18C75.5168 18 76.2928 18.192 76.9808 18.576C77.6848 18.96 78.2288 19.496 78.6128 20.184C79.0128 20.872 79.2128 21.672 79.2128 22.584C79.2128 23.496 79.0128 24.296 78.6128 24.984C78.2288 25.672 77.6848 26.208 76.9808 26.592C76.2928 26.976 75.5168 27.168 74.6528 27.168ZM74.6528 24.84C75.1488 24.84 75.5648 24.656 75.9008 24.288C76.2528 23.92 76.4288 23.352 76.4288 22.584C76.4288 21.816 76.2528 21.248 75.9008 20.88C75.5648 20.512 75.1488 20.328 74.6528 20.328C74.1568 20.328 73.7328 20.512 73.3808 20.88C73.0448 21.248 72.8768 21.816 72.8768 22.584C72.8768 23.352 73.0448 23.92 73.3808 24.288C73.7328 24.656 74.1568 24.84 74.6528 24.84ZM80.7716 27V18.168H83.3916L83.4876 19.56C83.7756 19.064 84.1836 18.688 84.7116 18.432C85.2396 18.16 85.8476 18.024 86.5356 18.024C87.6316 18.024 88.4876 18.328 89.1036 18.936C89.7196 19.544 90.0276 20.488 90.0276 21.768V27H87.1556V22.2C87.1556 21.624 87.0356 21.208 86.7956 20.952C86.5556 20.68 86.2036 20.544 85.7396 20.544C85.2276 20.544 84.8196 20.72 84.5156 21.072C84.2116 21.408 84.0596 21.888 84.0596 22.512V27H81.1876L80.7716 27Z" fill="#6D28D9"/>
  <path d="M92.528 27V11.52H98.272C99.504 11.52 100.584 11.768 101.512 12.264C102.456 12.744 103.192 13.432 103.72 14.328C104.248 15.224 104.512 16.264 104.512 17.448C104.512 18.632 104.248 19.664 103.72 20.544C103.192 21.408 102.456 22.08 101.512 22.56C100.584 23.04 99.504 23.28 98.272 23.28H94.672L96.32 21.696V27H92.528ZM100.624 27L96.824 21.696H100.984L104.848 27H100.624ZM96.32 21.96L94.672 20.112H98.08C98.992 20.112 99.68 19.88 100.144 19.416C100.624 18.952 100.864 18.296 100.864 17.448C100.864 16.584 100.624 15.92 100.144 15.456C99.68 14.992 98.992 14.76 98.08 14.76H94.672L96.32 12.936V21.96ZM112.025 27.168C110.857 27.168 109.833 26.968 108.953 26.568C108.089 26.168 107.417 25.608 106.937 24.888C106.457 24.152 106.217 23.304 106.217 22.344C106.217 21.368 106.457 20.52 106.937 19.8C107.417 19.064 108.073 18.496 108.905 18.096C109.753 17.696 110.705 17.496 111.761 17.496C112.753 17.496 113.625 17.68 114.377 18.048C115.145 18.416 115.737 18.944 116.153 19.632C116.569 20.32 116.777 21.144 116.777 22.104C116.777 22.312 116.761 22.544 116.729 22.8C116.713 23.04 116.681 23.256 116.633 23.448H109.057V21.336H114.953L113.689 21.984C113.705 21.504 113.625 21.104 113.449 20.784C113.273 20.448 113.025 20.2 112.705 20.04C112.401 19.864 112.041 19.776 111.625 19.776C111.209 19.776 110.841 19.864 110.521 20.04C110.217 20.2 109.977 20.448 109.801 20.784C109.625 21.104 109.537 21.512 109.537 22.008V22.344C109.537 22.856 109.641 23.296 109.849 23.664C110.073 24.032 110.385 24.312 110.785 24.504C111.185 24.68 111.665 24.768 112.225 24.768C112.721 24.768 113.153 24.712 113.521 24.6C113.889 24.472 114.241 24.272 114.577 24L116.153 25.992C115.625 26.408 114.985 26.728 114.233 26.952C113.481 27.096 112.761 27.168 112.025 27.168Z" fill="#2563EB"/>
</svg>
